<svg height="511pt" viewBox="-40 0 511 511.99898" width="511pt" xmlns="http://www.w3.org/2000/svg"><path d="m398.425781 441.957031-138.546875 27.671875-30.480468 6.09375-194.890626-33.765625c-35.175781-123.972656-35.175781-247.941406 0-371.914062l220.742188-39.777344 25.816406 7.171875 117.359375 32.605469c35.179688 123.972656 35.179688 247.945312 0 371.914062zm0 0" fill="#7c4635"/><path d="m398.425781 441.957031-138.546875 27.671875-159.742187-27.671875c-35.179688-123.972656-35.179688-247.941406 0-371.914062l180.929687-32.605469 117.359375 32.605469c35.179688 123.972656 35.179688 247.945312 0 371.914062zm0 0" fill="#996652"/><path d="m398.425781 441.957031v62.414063l-60.652343-20.347656-60.644532 20.347656-60.652344-20.347656-60.652343 20.347656-60.652344-20.347656-60.664063 20.347656v-62.414063zm0 0" fill="#e6e6e6"/><path d="m100.136719 441.957031v43.734375l-4.964844-1.667968-60.664063 20.347656v-62.414063zm0 0" fill="#b3b3b3"/><path d="m339.765625 231.769531c0 68.09375-55.199219 123.292969-123.292969 123.292969s-123.292968-55.199219-123.292968-123.292969 55.199218-123.292969 123.292968-123.292969 123.292969 55.199219 123.292969 123.292969zm0 0" fill="#e6e6e6"/><path d="m256.679688 191.554688c-32.632813-32.632813-77.09375-41.085938-99.300782-18.878907-22.210937 22.210938-13.757812 66.671875 18.878906 99.304688 32.632813 32.636719 77.09375 41.085937 99.300782 18.878906 22.210937-22.207031 13.757812-66.667969-18.878906-99.304687zm0 0" fill="#7c4635"/><path d="m398.425781 70.042969v-62.410157l-60.652343 20.34375-60.644532-20.34375-60.652344 20.34375-60.652343-20.34375-60.652344 20.34375-60.664063-20.34375v62.410157zm0 0" fill="#e6e6e6"/><path d="m100.136719 70.042969v-43.734375l-4.964844 1.667968-60.664063-20.34375v62.410157zm0 0" fill="#b3b3b3"/><path d="m432.441406 256c0-62.050781-8.878906-124.960938-26.386718-186.996094v-61.375c0-2.453125-1.179688-4.757812-3.171876-6.191406-1.992187-1.43359375-4.550781-1.820312-6.882812-1.039062l-58.226562 19.53125-58.214844-19.53125c-1.578125-.53125-3.28125-.53125-4.855469 0l-58.222656 19.53125-58.226563-19.53125c-1.574218-.53125-3.277344-.53125-4.855468 0l-58.222657 19.53125-58.238281-19.53125c-2.328125-.78125-4.890625-.39453175-6.882812 1.039062-1.992188 1.433594-3.175782 3.738281-3.175782 6.191406v61.402344c-17.5 62.027344-26.378906 124.925781-26.378906 186.96875s8.878906 124.941406 26.378906 186.96875v61.398438c0 2.457031 1.183594 4.761718 3.175782 6.195312 1.992187 1.433594 4.554687 1.820312 6.882812 1.039062l58.234375-19.53125 58.226563 19.53125c1.574218.53125 3.277343.53125 4.851562 0l58.226562-19.53125 58.226563 19.53125c1.574219.53125 3.277344.53125 4.851563 0l58.214843-19.53125 58.226563 19.53125c.792968.265626 1.613281.398438 2.425781.398438 1.582031 0 3.144531-.492188 4.457031-1.4375 1.992188-1.433594 3.175782-3.738281 3.175782-6.195312v-61.371094c17.503906-62.035156 26.386718-124.941406 26.386718-186.996094zm-392.113281-178.328125h294.503906c4.214844 0 7.628907-3.414063 7.628907-7.628906 0-4.214844-3.414063-7.628907-7.628907-7.628907h-292.691406v-44.175781l50.605469 16.972657c1.574218.527343 3.277344.527343 4.855468 0l58.226563-19.53125 58.222656 19.53125c1.578125.527343 3.28125.527343 4.855469 0l58.222656-19.53125 58.21875 19.53125c1.574219.53125 3.277344.527343 4.851563 0l50.597656-16.972657v44.175781h-25.445313c-4.214843 0-7.628906 3.414063-7.628906 7.628907 0 4.214843 3.414063 7.628906 7.628906 7.628906h27.261719c16.289063 59.222656 24.566407 119.183594 24.566407 178.332031 0 59.140625-8.277344 119.105469-24.566407 178.324219h-352.285156c-16.285156-59.21875-24.566406-119.179687-24.566406-178.324219 0-59.148437 8.28125-119.113281 24.566406-178.332031zm350.46875 416.089844-50.597656-16.972657c-1.574219-.527343-3.277344-.527343-4.851563 0l-58.214844 19.53125-58.226562-19.53125c-1.574219-.527343-3.277344-.527343-4.851562 0l-58.226563 19.53125-58.226563-19.53125c-.785156-.261718-1.605468-.394531-2.425781-.394531-.820312 0-1.640625.132813-2.425781.394531l-50.609375 16.972657v-44.175781h348.65625zm0 0"/><path d="m112.953125 311.929688c2.585937 3.328124 7.378906 3.933593 10.707031 1.351562s3.933594-7.375 1.351563-10.707031c-15.835938-20.417969-24.210938-44.902344-24.210938-70.808594 0-63.773437 51.890625-115.65625 115.671875-115.65625 63.773438 0 115.660156 51.882813 115.660156 115.65625 0 63.78125-51.886718 115.671875-115.660156 115.671875-26.136718 0-50.796875-8.507812-71.316406-24.601562-3.316406-2.597657-8.113281-2.019532-10.714844 1.296874-2.597656 3.316407-2.019531 8.113282 1.296875 10.710938 23.230469 18.222656 51.148438 27.851562 80.734375 27.851562 72.1875 0 130.917969-58.734374 130.917969-130.929687 0-72.1875-58.730469-130.917969-130.917969-130.917969-72.195312 0-130.929687 58.730469-130.929687 130.917969 0 29.324219 9.480469 57.042969 27.410156 80.164063zm0 0"/><path d="m228.398438 309.484375c4.992187.949219 9.839843 1.417969 14.496093 1.417969 15.226563 0 28.429688-5.015625 38.066407-14.648438 12.582031-12.582031 17.277343-31.246094 13.226562-52.558594-3.851562-20.246093-15.253906-40.679687-32.105469-57.535156-16.859375-16.855468-37.289062-28.257812-57.535156-32.105468-21.308594-4.050782-39.980469.644531-52.5625 13.226562s-17.277344 31.25-13.226563 52.5625c3.847657 20.246094 15.25 40.675781 32.105469 57.535156 16.855469 16.851563 37.289063 28.253906 57.535157 32.105469zm-38.269532-141.578125c3.683594 0 7.554688.375 11.570313 1.140625 17.265625 3.28125 34.878906 13.191406 49.589843 27.90625 14.710938 14.710937 24.621094 32.324219 27.90625 49.589844 2.449219 12.886719.90625 24.261719-4.300781 32.859375l-106.058593-106.0625c5.917968-3.585938 13.152343-5.433594 21.292968-5.433594zm-32.078125 16.230469 106.054688 106.054687c-8.597657 5.207032-19.972657 6.75-32.859375 4.300782-17.269532-3.28125-34.878906-13.191407-49.59375-27.90625-14.710938-14.710938-24.621094-32.324219-27.90625-49.589844-2.445313-12.890625-.90625-24.261719 4.304687-32.859375zm0 0"/><path d="m316.898438 377.261719h-200.851563c-4.214844 0-7.628906 3.417969-7.628906 7.628906 0 4.214844 3.414062 7.632813 7.628906 7.632813h200.851563c4.214843 0 7.628906-3.417969 7.628906-7.632813 0-4.210937-3.417969-7.628906-7.628906-7.628906zm0 0"/></svg>